<svg width="150" height="56" viewBox="0 0 150 56" fill="none" xmlns="http://www.w3.org/2000/svg">
  <!-- Tech icon background -->
  <rect x="8" y="8" width="40" height="40" rx="8" fill="#2563EB"/>
  
  <!-- Circuit board pattern -->
  <path d="M12 16 L20 16 M12 20 L20 20 M12 24 L20 24 M12 28 L20 28 M12 32 L20 32" stroke="white" stroke-width="1.5" stroke-linecap="round"/>
  <path d="M20 16 L28 16 L28 20 L20 20" stroke="white" stroke-width="1.5" fill="none"/>
  <path d="M20 24 L28 24 L28 28 L20 28" stroke="white" stroke-width="1.5" fill="none"/>
  <path d="M20 32 L28 32 L28 36 L20 36" stroke="white" stroke-width="1.5" fill="none"/>
  
  <!-- Connection dots -->
  <circle cx="20" cy="16" r="1" fill="white"/>
  <circle cx="20" cy="20" r="1" fill="white"/>
  <circle cx="20" cy="24" r="1" fill="white"/>
  <circle cx="20" cy="28" r="1" fill="white"/>
  <circle cx="20" cy="32" r="1" fill="white"/>
  <circle cx="28" cy="16" r="1" fill="white"/>
  <circle cx="28" cy="20" r="1" fill="white"/>
  <circle cx="28" cy="24" r="1" fill="white"/>
  <circle cx="28" cy="28" r="1" fill="white"/>
  <circle cx="28" cy="32" r="1" fill="white"/>
  
  <!-- Company name -->
  <text x="120" y="30" text-anchor="middle" fill="#333" font-family="Arial, sans-serif" font-size="8" font-weight="bold">Tech Solutions</text>
  <text x="120" y="42" text-anchor="middle" fill="#666" font-family="Arial, sans-serif" font-size="6">AI & Automation</text>
</svg>
